<?xml version="1.0" encoding="UTF-8"?>
<svg version="1.1" xmlns="http://www.w3.org/2000/svg" width="512" height="512">
<path d="M0 0 C2.62695312 1.00292969 2.62695312 1.00292969 5.28125 2.421875 C6.27616455 2.9463623 7.2710791 3.47084961 8.29614258 4.01123047 C9.35341553 4.58502441 10.41068848 5.15881836 11.5 5.75 C12.61076904 6.34055176 13.72153809 6.93110352 14.8659668 7.53955078 C18.25195268 9.34531343 21.62748485 11.16922042 25 13 C25.94568848 13.51208008 26.89137695 14.02416016 27.86572266 14.55175781 C32.32494767 16.9699082 36.7757853 19.40296835 41.22265625 21.84375 C47.70864483 25.39734569 54.22820823 28.88768559 60.75 32.375 C63.11592396 33.64055296 65.48179189 34.90621064 67.84765625 36.171875 C68.43554932 36.48634583 69.02344238 36.80081665 69.62915039 37.12481689 C76.15356976 40.61564445 82.67144797 44.11858335 89.1875 47.625 C90.24356445 48.1926709 91.29962891 48.7603418 92.38769531 49.34521484 C94.35356463 50.40354056 96.31740096 51.46565467 98.27880859 52.53222656 C100.06375297 53.49500115 101.85822258 54.44036434 103.66259766 55.36621094 C104.47132324 55.7893457 105.28004883 56.21248047 106.11328125 56.6484375 C106.81880127 57.00856934 107.52432129 57.36870117 108.2512207 57.73974609 C110.46526212 59.33529011 111.18613533 60.38933955 112 63 C111.66716346 68.52580227 109.46089456 73.63949863 107.54296875 78.78125 C107.02661613 80.17881531 107.02661613 80.17881531 106.49983215 81.60461426 C105.7720826 83.56897148 105.04152875 85.53229177 104.30834961 87.49462891 C103.19257192 90.4864005 102.09093401 93.48312221 100.99023438 96.48046875 C100.27949978 98.39354664 99.56793849 100.30631764 98.85546875 102.21875 C98.36617134 103.55492371 98.36617134 103.55492371 97.86698914 104.91809082 C95.93645638 110.04343053 93.94867812 115.05132188 90 119 C87.98035801 119.07244053 85.95832876 119.08377188 83.9375 119.0625 C82.83277344 119.05347656 81.72804688 119.04445313 80.58984375 119.03515625 C79.73519531 119.02355469 78.88054687 119.01195312 78 119 C77.9175 120.010625 77.835 121.02125 77.75 122.0625 C76.66246022 129.4369136 72.73872765 133.72647941 67 138 C66.01 138.66 65.02 139.32 64 140 C63.52185946 142.61159957 63.52185946 142.61159957 63.55859375 145.6796875 C63.53216797 146.83726562 63.50574219 147.99484375 63.47851562 149.1875 C63.46498047 150.404375 63.45144531 151.62125 63.4375 152.875 C63.25591407 165.16904015 62.25217989 176.40314574 58 188 C59.51557417 189.25637135 61.03776515 190.504762 62.5625 191.75 C63.40941406 192.44609375 64.25632812 193.1421875 65.12890625 193.859375 C71.03626509 198.26377316 77.12165899 200.98350592 84 203.46875 C85.29236572 203.9446331 85.29236572 203.9446331 86.61083984 204.43013 C88.45282718 205.10791063 90.29579252 205.78303832 92.13964844 206.45571899 C96.97338785 208.2204609 101.79851956 210.00849183 106.625 211.79296875 C107.58970215 212.14904709 108.5544043 212.50512543 109.54833984 212.87199402 C117.71566086 215.88819692 125.87169316 218.93221751 134.00146484 222.04833984 C135.32613627 222.55484138 136.65197623 223.05829809 137.97900391 223.55859375 C139.80145329 224.24613519 141.61960637 224.94503304 143.4375 225.64453125 C144.44683594 226.02971924 145.45617187 226.41490723 146.49609375 226.81176758 C149.64545992 228.30630396 151.45594743 229.701633 152.80859375 232.9296875 C153.05412742 235.58545989 152.36386731 236.82022153 151.0625 239.125 C149.42358298 241.89943973 149.42358298 241.89943973 149 245 C150.55383147 246.53237551 150.55383147 246.53237551 152.5625 248.125 C164.22037814 258.11452455 170.70744745 269.50390256 172 285 C172.15545621 289.49881684 172.16734851 293.99560915 172.17700195 298.49682617 C172.18327788 299.84948394 172.18992565 301.20214004 172.19691467 302.55479431 C172.21780069 306.96750725 172.22829362 311.38021999 172.23828125 315.79296875 C172.2423328 317.31712677 172.24644984 318.84128461 172.25063133 320.36544228 C172.26963879 327.51962994 172.28388628 334.6738075 172.2922433 341.82801551 C172.30203829 350.07498961 172.32843493 358.32169695 172.36874419 366.56857699 C172.39888758 372.95517777 172.41370995 379.34170186 172.41702431 385.7283724 C172.41937422 389.53864743 172.42832872 393.34863595 172.45348549 397.15883446 C172.47674444 400.73849941 172.48100866 404.31768854 172.47072411 407.89740944 C172.46999212 409.83468319 172.48909214 411.77193269 172.50878906 413.70910645 C172.49837334 415.4438044 172.49837334 415.4438044 172.48774719 417.21354675 C172.49013555 418.21620669 172.4925239 419.21886663 172.49498463 420.25191021 C171.8459532 423.85524767 170.55912306 425.40289911 168 428 C165.31489468 428.62674582 165.31489468 428.62674582 162.17784119 428.6292057 C160.9810225 428.64224444 159.78420382 428.65528318 158.5511179 428.66871703 C157.23479342 428.65756342 155.91846895 428.64640981 154.56225586 428.63491821 C153.15096244 428.6406778 151.73967652 428.64861783 150.32840633 428.65855443 C146.44562463 428.67947404 142.56345545 428.66908986 138.68067122 428.65362334 C134.49517077 428.64233445 130.30977743 428.65976025 126.1242981 428.67352295 C117.92313582 428.69578633 109.72220199 428.69094043 101.52103066 428.67645974 C94.85733426 428.66517966 88.19370199 428.66363126 81.52999878 428.66907883 C80.58252209 428.66984499 79.63504539 428.67061116 78.65885729 428.67140054 C76.73423233 428.67299912 74.80960739 428.67462019 72.88498247 428.6762635 C54.82676391 428.69053008 36.76867214 428.67411403 18.71047437 428.64726166 C3.2069845 428.62492206 -12.2963182 428.62880193 -27.79980469 428.65185547 C-45.79225339 428.67859744 -63.78459089 428.6891567 -81.77705669 428.67379415 C-83.69470404 428.67220136 -85.6123514 428.67062951 -87.52999878 428.66907883 C-88.94537315 428.66792176 -88.94537315 428.66792176 -90.38934094 428.66674132 C-97.04703279 428.6624195 -103.70465425 428.66972123 -110.36233521 428.68147659 C-118.47301871 428.69548235 -126.58346019 428.69174233 -134.69411588 428.66507287 C-138.83441953 428.65190859 -142.97431931 428.64682633 -147.11462021 428.66331863 C-150.90215236 428.67817784 -154.68890489 428.67009799 -158.47636592 428.64343087 C-160.50128393 428.63516704 -162.52625572 428.65155977 -164.5511179 428.66871703 C-165.74793658 428.65567829 -166.94475527 428.64263955 -168.17784119 428.6292057 C-169.73068266 428.62798806 -169.73068266 428.62798806 -171.31489468 428.62674582 C-174.98235464 427.77070297 -176.02290858 426.12085704 -178 423 C-178.49777794 420.26308346 -178.49777794 420.26308346 -178.49447632 417.24046326 C-178.5028653 416.08977859 -178.51125427 414.93909393 -178.51989746 413.75354004 C-178.50865845 412.49996704 -178.49741943 411.24639404 -178.48583984 409.95483398 C-178.48798714 408.6139743 -178.49186697 407.27311645 -178.49734497 405.93226624 C-178.50702856 402.29532514 -178.49174247 398.658876 -178.47143888 395.02199435 C-178.45382787 391.20526645 -178.45739392 387.38855286 -178.4581604 383.5717926 C-178.45628758 377.155119 -178.43893582 370.73863458 -178.41162109 364.32202148 C-178.38026426 356.92910267 -178.36962177 349.53639164 -178.3710922 342.1434111 C-178.37245 334.24777609 -178.35851898 326.35222003 -178.34019899 318.45660901 C-178.33595962 316.19539346 -178.33451976 313.93419087 -178.33372116 311.67297173 C-178.33169192 308.09831375 -178.31931928 304.523826 -178.29938889 300.94922447 C-178.29088341 299.03122073 -178.29187128 297.113182 -178.29327393 295.19515991 C-178.1656414 277.68230498 -174.75294418 264.34428899 -163 251 C-160.46449925 248.75367207 -157.87620457 246.78685189 -155 245 C-156.38424911 241.43013027 -156.38424911 241.43013027 -158.1875 238.0625 C-159.48579136 234.76683731 -159.3482353 233.30317649 -158 230 C-150.06446804 224.39342717 -139.41172931 221.66904696 -130.35140991 218.35650635 C-127.46107591 217.29824846 -124.57445473 216.23040101 -121.6887207 215.15966797 C-114.04678117 212.32567323 -106.40394141 209.49587247 -98.73168945 206.74482727 C-80.41355758 200.41108388 -80.41355758 200.41108388 -65 189 C-65 184.74806169 -65.91785597 181.80642174 -67.24609375 177.828125 C-68.79146173 172.03099329 -69.0458646 166.49270248 -69.03515625 160.5234375 C-69.04095703 159.358125 -69.04675781 158.1928125 -69.05273438 156.9921875 C-69.0592661 154.57283578 -69.0382487 152.15325904 -68.99023438 149.734375 C-68.88924641 143.37249395 -68.88924641 143.37249395 -71.73999023 137.9675293 C-73.81741129 136.38618021 -73.81741129 136.38618021 -75.99609375 135.22680664 C-80.00240867 132.77411019 -82.38602198 128.42383859 -83.5234375 123.93359375 C-83.8125 122 -83.8125 122 -84 119 C-84.81984375 119.05800781 -85.6396875 119.11601562 -86.484375 119.17578125 C-87.56203125 119.22089844 -88.6396875 119.26601562 -89.75 119.3125 C-90.81734375 119.37050781 -91.8846875 119.42851562 -92.984375 119.48828125 C-96 119 -96 119 -97.91577148 117.12939453 C-100.78812779 112.81665433 -102.51716299 108.26715913 -104.36328125 103.44140625 C-104.75952194 102.41949692 -105.15576263 101.39758759 -105.56401062 100.3447113 C-106.39636733 98.18887399 -107.22397273 96.03119696 -108.04711914 93.87182617 C-109.30922449 90.57106637 -110.59606454 87.28068667 -111.88476562 83.99023438 C-112.69162825 81.89121022 -113.49701712 79.79161884 -114.30078125 77.69140625 C-114.88029289 76.21928429 -114.88029289 76.21928429 -115.47151184 74.71742249 C-118.78672508 65.89960565 -118.78672508 65.89960565 -117 61 C-114.83500078 58.01081755 -111.71677786 56.61817393 -108.49609375 54.91796875 C-107.37638184 54.32298584 -106.25666992 53.72800293 -105.10302734 53.11499023 C-103.88119721 52.47247007 -102.65935443 51.82997396 -101.4375 51.1875 C-100.17106239 50.51631799 -98.90495364 49.84451513 -97.63916016 49.17211914 C-95.0327687 47.78792095 -92.42521095 46.40595771 -89.81689453 45.02539062 C-84.15424081 42.02465291 -78.51485921 38.98080107 -72.875 35.9375 C-70.72661496 34.77985055 -68.57817741 33.62229856 -66.4296875 32.46484375 C-65.36975586 31.89362793 -64.30982422 31.32241211 -63.21777344 30.73388672 C-56.74682531 27.24703743 -50.27439359 23.76294271 -43.80224609 20.27832031 C-38.70421258 17.53340438 -33.60638185 14.788114 -28.50927734 12.04147339 C-26.08943641 10.73754099 -23.66947879 9.43382523 -21.24951172 8.13012695 C-19.53211228 7.20480192 -17.81488264 6.27916177 -16.09765625 5.35351562 C-14.54884766 4.51916992 -14.54884766 4.51916992 -12.96875 3.66796875 C-12.05544922 3.17578857 -11.14214844 2.6836084 -10.20117188 2.17651367 C-6.4522587 0.1727412 -4.3220477 -0.28839989 0 0 Z " fill="#1F3040" transform="translate(259,42)"/>
<path d="M0 0 C2.18641491 1.469247 3.43734811 2.90257617 4.99584961 5.02075195 C5.54241211 5.73618164 6.08897461 6.45161133 6.65209961 7.1887207 C7.78326593 8.69781126 8.90568428 10.21349837 10.01928711 11.7355957 C13.26176357 16.14294849 13.26176357 16.14294849 18.23413086 17.94262695 C22.11234558 17.06850723 23.39551346 15.34229641 25.97241211 12.32543945 C27.22023694 10.88605089 28.47033 9.44862627 29.72241211 8.01293945 C30.31538086 7.31555664 30.90834961 6.61817383 31.51928711 5.8996582 C31.99881836 5.38016602 32.47834961 4.86067383 32.97241211 4.32543945 C33.30241211 4.32543945 33.63241211 4.32543945 33.97241211 4.32543945 C33.41666928 11.82382033 32.10769038 18.99379731 30.47241211 26.32543945 C29.93045711 28.80714734 29.38881078 31.28892264 28.84741211 33.77075195 C28.5467254 35.14088989 28.24594084 36.51100636 27.94506836 37.88110352 C23.3110335 59.01824353 18.7537047 80.17632333 14.47241211 101.38793945 C14.22942383 102.58080566 13.98643555 103.77367187 13.73608398 105.00268555 C13.11702345 108.10565881 12.52894849 111.21069525 11.97241211 114.32543945 C11.81458252 115.20111572 11.65675293 116.07679199 11.49414062 116.97900391 C10.81413013 121.44979794 10.81413013 121.44979794 12.12475586 125.6730957 C12.71385742 126.23899414 13.30295898 126.80489258 13.90991211 127.38793945 C14.55959961 128.03762695 15.20928711 128.68731445 15.87866211 129.35668945 C16.56959961 130.00637695 17.26053711 130.65606445 17.97241211 131.32543945 C19.28491211 132.67960612 20.59741211 134.03377279 21.90991211 135.38793945 C24.99006802 138.43296051 28.19425882 141.25742825 31.50366211 144.0480957 C33.63077887 146.0102936 35.59247301 148.02118679 37.56616211 150.1340332 C38.21770264 150.82037842 38.86924316 151.50672363 39.54052734 152.21386719 C40.85423823 153.60477005 42.15125215 155.01166472 43.4296875 156.43505859 C46.37625127 159.53020812 48.02052237 161.17198059 52.31616211 161.86450195 C58.05759144 159.44770371 61.69011487 155.18931603 65.90991211 150.70043945 C67.62497523 148.91429233 69.34239041 147.13040043 71.06225586 145.34887695 C71.88894775 144.48963623 72.71563965 143.63039551 73.56738281 142.74511719 C76.35096448 139.94458142 79.26178087 137.35274606 82.26416016 134.79125977 C84.40550338 132.95381162 86.41915034 131.01171234 88.40991211 129.01293945 C89.06862305 128.35680664 89.72733398 127.70067383 90.40600586 127.0246582 C92.05275315 125.39593705 92.05275315 125.39593705 92.97241211 123.32543945 C92.44054252 115.89446151 90.90341983 108.72498824 89.34741211 101.45043945 C88.80582096 98.88167846 88.2652269 96.3127311 87.72631836 93.7434082 C87.58524155 93.07231522 87.44416473 92.40122223 87.29881287 91.70979309 C86.20778206 86.50086392 85.15830344 81.2843359 84.12475586 76.0637207 C83.89420502 74.90063385 83.89420502 74.90063385 83.65899658 73.71405029 C83.05316258 70.65472022 82.44799567 67.59527438 81.84832764 64.534729 C80.31635538 56.71858423 78.67517247 48.96579411 76.68896484 41.24951172 C75.37759048 35.89812132 74.37170964 30.48777703 73.34741211 25.07543945 C73.13084961 23.9565332 72.91428711 22.83762695 72.69116211 21.68481445 C71.58778532 15.90911373 70.61398838 10.17091213 69.97241211 4.32543945 C74.53258611 8.75149069 74.53258611 8.75149069 76.39428711 11.1809082 C78.99227684 14.56807223 80.40326752 16.1257396 84.53491211 17.57543945 C89.52705594 17.21237445 91.20245123 14.34281422 94.40283203 10.69506836 C95.87861442 8.97984354 97.33464503 7.24977466 98.78491211 5.51293945 C99.28700195 4.91545898 99.7890918 4.31797852 100.30639648 3.70239258 C101.53047943 2.24515098 102.75174173 0.7855408 103.97241211 -0.67456055 C108.60784271 0.7525121 112.89538255 2.63238904 117.23022461 4.7824707 C118.66218966 5.48437723 120.09415586 6.18628143 121.52612305 6.88818359 C122.27212769 7.25557648 123.01813232 7.62296936 123.78674316 8.00149536 C127.70487788 9.92853085 131.63195135 11.83718764 135.55834961 13.74731445 C136.3497937 14.13250748 137.14123779 14.5177005 137.95666504 14.91456604 C140.29491053 16.0522184 142.63354813 17.18905921 144.97241211 18.32543945 C145.68901001 18.67372803 146.40560791 19.0220166 147.1439209 19.38085938 C151.06472752 21.2838087 154.99218015 23.1715374 158.93133545 25.03622437 C160.68407631 25.86970954 162.43014547 26.71717885 164.17602539 27.56494141 C171.78611742 31.39734555 171.78611742 31.39734555 179.97241211 31.32543945 C182.12395659 29.22251745 183.57944772 27.51895655 185.22241211 25.07543945 C185.64264648 24.48891602 186.06288086 23.90239258 186.49584961 23.2980957 C187.6717415 21.65258662 188.82286944 19.98946275 189.97241211 18.32543945 C190.96549032 16.98694274 191.96194475 15.65085768 192.97241211 14.32543945 C199.0569495 15.42065618 203.24834477 19.92838091 206.75366211 24.80200195 C232.75174951 66.98517317 212.97241211 123.77424893 212.97241211 173.32543945 C106.71241211 173.32543945 0.45241211 173.32543945 -109.02758789 173.32543945 C-109.02758789 30.59004426 -109.02758789 30.59004426 -99.40258789 20.70043945 C-98.64719727 19.90379883 -97.89180664 19.1071582 -97.11352539 18.28637695 C-95.02758789 16.32543945 -95.02758789 16.32543945 -92.02758789 14.32543945 C-89.48664265 14.53479881 -88.37214102 14.97455412 -86.57958984 16.80004883 C-86.14606201 17.41686523 -85.71253418 18.03368164 -85.26586914 18.66918945 C-84.78698242 19.33821289 -84.3080957 20.00723633 -83.81469727 20.6965332 C-83.32807617 21.39907227 -82.84145508 22.10161133 -82.34008789 22.82543945 C-81.35739487 24.21112561 -80.37434074 25.59655577 -79.39086914 26.98168945 C-78.9607251 27.59850586 -78.53058105 28.21532227 -78.08740234 28.85083008 C-77.1040407 30.30282514 -77.1040407 30.30282514 -76.02758789 31.32543945 C-70.6851101 31.72985341 -67.30252123 30.89535869 -62.54711914 28.5012207 C-61.94446228 28.20332642 -61.34180542 27.90543213 -60.72088623 27.59851074 C-58.75433353 26.62374149 -56.79758686 25.63074523 -54.84008789 24.63793945 C-52.77103409 23.60797239 -50.69943589 22.58325843 -48.62754822 21.55900574 C-47.21117722 20.85867097 -45.79554261 20.15684504 -44.38063049 19.4535675 C-37.17873555 15.88083598 -29.89434353 12.49519108 -22.59008789 9.13793945 C-20.34103718 8.10354992 -18.09231704 7.06844124 -15.84399414 6.0324707 C-14.83868652 5.57308105 -13.83337891 5.11369141 -12.79760742 4.64038086 C-10.30421684 3.45675653 -7.9081343 2.16932672 -5.49243164 0.8371582 C-2.02758789 -0.67456055 -2.02758789 -0.67456055 0 0 Z " fill="#5FB5FC" transform="translate(204.027587890625,283.674560546875)"/>
<path d="M0 0 C4.41179296 2.10928788 8.69137514 4.40237611 12.9609375 6.78515625 C14.93969932 7.87703609 16.91888355 8.96815069 18.8984375 10.05859375 C20.44917969 10.91469238 20.44917969 10.91469238 22.03125 11.78808594 C27.32308211 14.69566814 32.64204546 17.55246572 37.9609375 20.41015625 C39.04294434 20.99224854 40.12495117 21.57434082 41.23974609 22.17407227 C45.68412894 24.56490482 50.12934894 26.95417522 54.57519531 29.34228516 C68.82873943 36.99895952 83.05206666 44.70462949 97.2109375 52.53515625 C95.8064927 60.20493864 93.21716732 67.29706276 90.4152832 74.54931641 C89.64027194 76.55630196 88.87512568 78.56684834 88.11132812 80.578125 C84.36333062 90.38276313 84.36333062 90.38276313 83.2109375 91.53515625 C81.02134712 91.63214123 78.8285622 91.65702352 76.63682556 91.65541077 C75.94176724 91.65626519 75.24670891 91.65711962 74.53058821 91.65799993 C72.18434764 91.65965674 69.83817742 91.65413012 67.49194336 91.64868164 C65.81694032 91.64839979 64.14193717 91.64855747 62.4669342 91.64912415 C57.90514471 91.64941219 53.34338127 91.64351439 48.78159785 91.63655019 C44.0196475 91.63031776 39.2576966 91.62971294 34.4957428 91.62852478 C25.47178184 91.62541114 16.44783294 91.61719731 7.4238773 91.60717529 C-2.84680737 91.59601518 -13.11749259 91.59050396 -23.38818181 91.58547986 C-44.52181544 91.57501472 -65.65543821 91.55741464 -86.7890625 91.53515625 C-87.59350234 89.60626121 -88.39776414 87.67729192 -89.20195007 85.74829102 C-89.87378846 84.13701073 -89.87378846 84.13701073 -90.55919933 82.49317932 C-92.62403602 77.52690768 -94.62173241 72.53579198 -96.6015625 67.53515625 C-97.00826172 66.52582031 -97.41496094 65.51648438 -97.83398438 64.4765625 C-98.21748047 63.50589844 -98.60097656 62.53523438 -98.99609375 61.53515625 C-99.3413208 60.66890625 -99.68654785 59.80265625 -100.04223633 58.91015625 C-100.7890625 56.53515625 -100.7890625 56.53515625 -100.7890625 52.53515625 C-100.05606934 52.14360352 -99.32307617 51.75205078 -98.56787109 51.34863281 C-80.2678119 41.57040693 -80.2678119 41.57040693 -62.0390625 31.66015625 C-55.67483752 28.17066012 -49.28780445 24.72734475 -42.875 21.328125 C-42.18312592 20.96129105 -41.49125183 20.59445709 -40.77841187 20.21650696 C-37.26453492 18.35460925 -33.74857553 16.49676446 -30.22998047 14.64379883 C-24.55958391 11.65126116 -18.90824522 8.66152821 -13.3984375 5.37890625 C-12.28927979 4.72088013 -12.28927979 4.72088013 -11.15771484 4.04956055 C-9.8862889 3.28306166 -8.62481511 2.49962872 -7.37744141 1.69458008 C-4.6490943 0.0455386 -3.18203747 -0.53033958 0 0 Z " fill="#F76D84" transform="translate(257.7890625,56.46484375)"/>
<path d="M0 0 C1.58453476 -0.00786278 1.58453476 -0.00786278 3.20108032 -0.0158844 C5.42831547 -0.02228728 7.65558452 -0.02099017 9.8828125 -0.01245117 C13.27145295 -0.00395043 16.65840115 -0.03271386 20.046875 -0.06445312 C22.2187495 -0.06606569 24.39062696 -0.06548655 26.5625 -0.0625 C28.06760635 -0.07935097 28.06760635 -0.07935097 29.6031189 -0.09654236 C38.24992284 -0.01184821 45.59037009 2.29589229 51.9140625 8.43359375 C55.54369209 13.61877888 56.03850795 17.7511728 56.10693359 24.00292969 C56.11919983 24.97939453 56.11919983 24.97939453 56.13171387 25.97558594 C56.15645934 28.12303777 56.17305676 30.27042394 56.1875 32.41796875 C56.19282368 33.1545295 56.19814735 33.89109024 56.20363235 34.64997101 C56.23031819 38.54951433 56.24970667 42.44902617 56.26416016 46.34863281 C56.27748883 49.56506861 56.30532688 52.7808684 56.34619141 55.99707031 C56.39567034 59.89212302 56.42029931 63.78659992 56.42738724 67.68195343 C56.43407315 69.16026351 56.44922563 70.63856207 56.47327805 72.11669159 C56.7043319 87.17624064 56.7043319 87.17624064 50.9140625 93.43359375 C46.25847125 98.06299994 42.21767235 100.67553936 35.59814453 100.70825195 C34.5366922 100.71778397 33.47523987 100.72731598 32.38162231 100.73713684 C31.2399057 100.73622543 30.09818909 100.73531403 28.921875 100.734375 C27.74317841 100.73866013 26.56448181 100.74294525 25.35006714 100.74736023 C22.85691978 100.75310281 20.36375567 100.75360433 17.87060547 100.74926758 C14.06058054 100.74611157 10.25133496 100.76955519 6.44140625 100.79492188 C4.01823015 100.79719529 1.59505195 100.79789817 -0.828125 100.796875 C-1.96579315 100.80608475 -3.1034613 100.81529449 -4.27560425 100.82478333 C-9.97355376 100.79154417 -14.1794324 100.6721269 -19.0859375 97.43359375 C-19.9521875 96.87671875 -20.8184375 96.31984375 -21.7109375 95.74609375 C-26.39571255 91.18460225 -28.8830856 85.13138714 -29.23983765 78.62814331 C-29.25269806 77.54799957 -29.26555847 76.46785583 -29.27880859 75.35498047 C-29.29487152 74.12625214 -29.31093445 72.8975238 -29.32748413 71.63156128 C-29.33897582 70.29214172 -29.34958364 68.95271432 -29.359375 67.61328125 C-29.36469868 66.93437962 -29.37002235 66.25547798 -29.37550735 65.55600357 C-29.40219478 61.95889671 -29.42157924 58.36182394 -29.43603516 54.76464844 C-29.44933941 51.80437073 -29.47713123 48.84478808 -29.51806641 45.88476562 C-29.56770321 42.29443707 -29.59219375 38.70473545 -29.59926224 35.11407852 C-29.60913863 33.09900712 -29.64330745 31.08410115 -29.67807007 29.06930542 C-29.65845234 20.48138478 -28.48845395 13.45880977 -22.67831421 6.82687378 C-15.79674466 0.58590289 -8.84038982 -0.02576021 0 0 Z " fill="#FCBD31" transform="translate(144.0859375,336.56640625)"/>
<path d="M0 0 C0.60948486 0.1861084 1.21896973 0.3722168 1.84692383 0.56396484 C7.76759651 2.35803931 13.70616373 4.04557624 19.6875 5.625 C20.89116211 5.94984375 20.89116211 5.94984375 22.11914062 6.28125 C47.06210263 12.87840893 74.51095544 9.89879158 98.53515625 1.20703125 C102 0 102 0 104 0 C104.05859888 3.83326795 104.09379643 7.66641888 104.125 11.5 C104.14175781 12.57765625 104.15851563 13.6553125 104.17578125 14.765625 C104.26921275 30.08839125 98.77289707 42.61817555 88.625 54.0625 C80.81435574 61.5577144 68.80569588 67.21190225 58 68 C57.07058594 68.06832031 56.14117187 68.13664062 55.18359375 68.20703125 C41.20864035 68.69897876 28.41896277 64.9188398 17.8125 55.75 C7.8109017 46.23437278 0.44621877 35.33683556 -0.11352539 21.11572266 C-0.10828857 20.1416748 -0.10305176 19.16762695 -0.09765625 18.1640625 C-0.09443359 17.10058594 -0.09121094 16.03710938 -0.08789062 14.94140625 C-0.07951172 13.84699219 -0.07113281 12.75257813 -0.0625 11.625 C-0.05798828 10.50738281 -0.05347656 9.38976562 -0.04882812 8.23828125 C-0.03709244 5.49213196 -0.02067363 2.74609414 0 0 Z " fill="#FAD3A8" transform="translate(204,188)"/>
<path d="M0 0 C0.66 0 1.32 0 2 0 C2.24121582 1.19149658 2.48243164 2.38299316 2.73095703 3.6105957 C8.66011686 32.92442448 8.66011686 32.92442448 15.03930664 62.14257812 C16.70191118 69.51947331 18.16156992 76.91757198 19.53027344 84.35400391 C20.71513225 90.71307463 22.10225914 97.01137889 23.5625 103.3125 C25.07735053 109.88090117 26.57200564 116.44831148 27.875 123.0625 C28.11992187 124.29097656 28.36484375 125.51945312 28.6171875 126.78515625 C29.0142597 130.11975239 29.04554906 131.82962544 28 135 C26.12797315 137.21202977 24.29084456 139.1758319 22.21484375 141.17578125 C21.35132042 142.0308149 21.35132042 142.0308149 20.47035217 142.90312195 C18.63526509 144.71587563 16.78674484 146.51420252 14.9375 148.3125 C13.68854041 149.54139078 12.44048246 150.77119864 11.19335938 152.00195312 C8.13925431 155.01203114 5.0730282 158.00924832 2 161 C-3.99582733 158.553401 -8.48078178 153.12536182 -13.0378418 148.66235352 C-14.21933727 147.51401599 -15.41146886 146.37651968 -16.61401367 145.25024414 C-26.43585181 136.04723158 -26.43585181 136.04723158 -27.63549805 131.69384766 C-27.40819661 129.28742331 -26.77162841 127.29160628 -26 125 C-25.55716411 122.72248452 -25.13598694 120.44070517 -24.73046875 118.15625 C-24.22089215 115.60321473 -23.70637495 113.05116173 -23.1875 110.5 C-22.91485742 109.14656956 -22.64223387 107.79313528 -22.36962891 106.43969727 C-20.84629775 98.91909977 -19.2195921 91.43604388 -17.39697266 83.98266602 C-15.90170526 77.7900897 -14.73563378 71.5459221 -13.56762695 65.28466797 C-10.63894904 49.63768602 -7.32761325 34.06807341 -3.69946289 18.56860352 C-2.27019852 12.41044444 -1.08318216 6.22811182 0 0 Z " fill="#F76D84" transform="translate(255,269)"/>
<path d="M0 0 C1.25843216 -0.0127597 2.51686432 -0.02551941 3.81343079 -0.03866577 C5.18445685 -0.04172385 6.55548498 -0.04395138 7.92651367 -0.04541016 C9.3389245 -0.05184114 10.751334 -0.05856973 12.16374207 -0.06558228 C15.12351568 -0.07754852 18.08317266 -0.08126389 21.04296875 -0.08007812 C24.82249672 -0.0798752 28.60127049 -0.1071514 32.38062 -0.14162254 C35.29843023 -0.16394162 38.21606055 -0.16791412 41.13394737 -0.16685867 C42.52652263 -0.1692081 43.91910335 -0.17799446 45.31159401 -0.19352341 C59.15601326 -0.33343501 59.15601326 -0.33343501 64.78198242 4.29052734 C69.38283253 9.91679376 68.25674926 16.82011158 68.21948242 23.72802734 C68.23946289 25.03835938 68.25944336 26.34869141 68.2800293 27.69873047 C68.2790625 29.59848633 68.2790625 29.59848633 68.27807617 31.53662109 C68.2799292 32.68831787 68.28178223 33.84001465 68.28369141 35.02661133 C67.65861401 39.09311238 66.43603193 41.15935155 63.78198242 44.29052734 C59.46183968 46.89115361 56.24388874 47.67045999 51.22924805 47.69458008 C49.30695374 47.71360634 49.30695374 47.71360634 47.3458252 47.73301697 C45.95995928 47.73096548 44.57409449 47.72797741 43.18823242 47.72412109 C41.75386305 47.728687 40.31949587 47.73399379 38.88513184 47.74000549 C35.88597702 47.74891756 32.88708876 47.74653487 29.88793945 47.73657227 C26.05452611 47.72507579 22.22203304 47.74531287 18.38874054 47.7744894 C15.42891652 47.79287941 12.46931203 47.79255362 9.50944519 47.78685188 C8.09651904 47.78669906 6.68357764 47.79271141 5.27070618 47.80514336 C3.29209493 47.82010425 1.31333159 47.80672003 -0.6652832 47.79223633 C-2.35022888 47.79198708 -2.35022888 47.79198708 -4.06921387 47.79173279 C-8.88180863 47.02569625 -12.07104746 44.74539157 -15.06152344 40.95214844 C-17.39303891 35.58626673 -16.77201456 29.67490805 -16.78051758 23.91552734 C-16.81725586 22.61357422 -16.85399414 21.31162109 -16.8918457 19.97021484 C-16.94098545 9.26866968 -16.94098545 9.26866968 -13.43286133 5.00146484 C-9.32133134 0.97841828 -5.70308892 0.03927708 0 0 Z " fill="#213241" transform="translate(329.218017578125,336.70947265625)"/>
<path d="M0 0 C1.58453476 -0.00786278 1.58453476 -0.00786278 3.20108032 -0.0158844 C5.42831547 -0.02228728 7.65558452 -0.02099017 9.8828125 -0.01245117 C13.27145295 -0.00395043 16.65840115 -0.03271386 20.046875 -0.06445312 C22.2187495 -0.06606569 24.39062696 -0.06548655 26.5625 -0.0625 C28.06760635 -0.07935097 28.06760635 -0.07935097 29.6031189 -0.09654236 C38.24992284 -0.01184821 45.59037009 2.29589229 51.9140625 8.43359375 C55.54369209 13.61877888 56.03850795 17.7511728 56.10693359 24.00292969 C56.11919983 24.97939453 56.11919983 24.97939453 56.13171387 25.97558594 C56.15645934 28.12303777 56.17305676 30.27042394 56.1875 32.41796875 C56.19282368 33.1545295 56.19814735 33.89109024 56.20363235 34.64997101 C56.23031819 38.54951433 56.24970667 42.44902617 56.26416016 46.34863281 C56.27748883 49.56506861 56.30532688 52.7808684 56.34619141 55.99707031 C56.39567034 59.89212302 56.42029931 63.78659992 56.42738724 67.68195343 C56.43407315 69.16026351 56.44922563 70.63856207 56.47327805 72.11669159 C56.7043319 87.17624064 56.7043319 87.17624064 50.9140625 93.43359375 C46.25847125 98.06299994 42.21767235 100.67553936 35.59814453 100.70825195 C34.5366922 100.71778397 33.47523987 100.72731598 32.38162231 100.73713684 C31.2399057 100.73622543 30.09818909 100.73531403 28.921875 100.734375 C27.74317841 100.73866013 26.56448181 100.74294525 25.35006714 100.74736023 C22.85691978 100.75310281 20.36375567 100.75360433 17.87060547 100.74926758 C14.06058054 100.74611157 10.25133496 100.76955519 6.44140625 100.79492188 C4.01823015 100.79719529 1.59505195 100.79789817 -0.828125 100.796875 C-1.96579315 100.80608475 -3.1034613 100.81529449 -4.27560425 100.82478333 C-9.97355376 100.79154417 -14.1794324 100.6721269 -19.0859375 97.43359375 C-19.9521875 96.87671875 -20.8184375 96.31984375 -21.7109375 95.74609375 C-26.39571255 91.18460225 -28.8830856 85.13138714 -29.23983765 78.62814331 C-29.25269806 77.54799957 -29.26555847 76.46785583 -29.27880859 75.35498047 C-29.29487152 74.12625214 -29.31093445 72.8975238 -29.32748413 71.63156128 C-29.33897582 70.29214172 -29.34958364 68.95271432 -29.359375 67.61328125 C-29.36469868 66.93437962 -29.37002235 66.25547798 -29.37550735 65.55600357 C-29.40219478 61.95889671 -29.42157924 58.36182394 -29.43603516 54.76464844 C-29.44933941 51.80437073 -29.47713123 48.84478808 -29.51806641 45.88476562 C-29.56770321 42.29443707 -29.59219375 38.70473545 -29.59926224 35.11407852 C-29.60913863 33.09900712 -29.64330745 31.08410115 -29.67807007 29.06930542 C-29.65845234 20.48138478 -28.48845395 13.45880977 -22.67831421 6.82687378 C-15.79674466 0.58590289 -8.84038982 -0.02576021 0 0 Z M-14.0859375 16.43359375 C-16.20337977 19.75996666 -16.35305831 22.49147454 -16.39233398 26.39208984 C-16.40832138 27.59368744 -16.42430878 28.79528503 -16.44078064 30.03329468 C-16.44614334 31.32812775 -16.45150604 32.62296082 -16.45703125 33.95703125 C-16.46600351 35.30457659 -16.47512546 36.65212094 -16.48439026 37.99966431 C-16.50086177 40.82239193 -16.50857697 43.6450012 -16.51147461 46.46777344 C-16.51685676 50.07493365 -16.55453507 53.68097309 -16.60021877 57.287817 C-16.63004425 60.07091274 -16.63719932 62.85374034 -16.63820076 65.63698196 C-16.64442267 67.61009896 -16.6738659 69.58309882 -16.70372009 71.55599976 C-16.81661514 78.73084168 -16.81661514 78.73084168 -14.24047852 85.24780273 C-9.58604138 88.47287631 -5.59995255 88.27756354 -0.0546875 88.1953125 C1.54832214 88.20036552 1.54832214 88.20036552 3.18371582 88.20552063 C5.4397463 88.20522206 7.69581748 88.18999943 9.95166016 88.16088867 C13.40262803 88.12122517 16.84975049 88.14018087 20.30078125 88.16601562 C22.49480656 88.15845617 24.68882335 88.14750236 26.8828125 88.1328125 C28.42829773 88.14328865 28.42829773 88.14328865 30.00500488 88.15397644 C30.96950562 88.13498795 31.93400635 88.11599945 32.92773438 88.09643555 C33.77203003 88.08944138 34.61632568 88.0824472 35.48620605 88.07524109 C39.11369326 87.11654869 40.63108903 85.3580076 42.9140625 82.43359375 C43.66992909 79.39856364 43.66992909 79.39856364 43.5769043 76.0703125 C43.59589279 74.80550049 43.61488129 73.54068848 43.63444519 72.23754883 C43.62881372 70.86539056 43.62172366 69.49323761 43.61328125 68.12109375 C43.61919382 66.70531616 43.62644208 65.28954358 43.63496399 63.8737793 C43.64682723 60.91135544 43.64016579 57.94968372 43.62084961 54.98730469 C43.59795521 51.19700965 43.62475185 47.4089553 43.66591167 43.61888123 C43.69152657 40.69674539 43.68890045 37.77514327 43.67801857 34.85293579 C43.67653504 33.45592208 43.68418567 32.05886683 43.70126915 30.66195679 C43.94741071 23.34076989 43.94741071 23.34076989 41.89543152 16.45983887 C38.40230627 12.9432516 34.00398013 12.83805735 29.34910583 12.79016113 C28.38956497 12.8065564 27.43002411 12.82295166 26.44140625 12.83984375 C25.44073624 12.83980347 24.44006622 12.83976318 23.40907288 12.83972168 C21.30023901 12.84506797 19.19140505 12.86261237 17.08276367 12.89160156 C13.85859202 12.9335024 10.6365078 12.93266311 7.41210938 12.92578125 C5.35936052 12.9362729 3.30662239 12.94921086 1.25390625 12.96484375 C0.29234116 12.96504517 -0.66922394 12.96524658 -1.65992737 12.9654541 C-8.38691336 13.06824216 -8.38691336 13.06824216 -14.0859375 16.43359375 Z " fill="#213242" transform="translate(144.0859375,336.56640625)"/>
<path d="M0 0 C4.53942217 1.5729374 8.95161006 2.65611928 13.70385742 3.31884766 C16.17619192 4.02099065 17.05531922 4.8719432 18.65698242 6.87353516 C19.06103516 9.02734375 19.06103516 9.02734375 19.09057617 11.52197266 C19.10773682 12.89736206 19.10773682 12.89736206 19.12524414 14.30053711 C19.11509277 15.27337646 19.10494141 16.24621582 19.09448242 17.24853516 C19.08690918 18.24135498 19.07933594 19.2341748 19.0715332 20.25708008 C18.77769784 33.41425553 15.24257278 44.79097264 5.53198242 54.12353516 C-0.59698334 58.97789299 -9.04128017 62.94009604 -16.99536133 62.42041016 C-26.48584988 60.20964743 -35.85625273 54.37608593 -41.09301758 46.11181641 C-46.35536944 36.23225678 -47.50774032 27.52728235 -47.71801758 16.49853516 C-47.74428223 15.61746094 -47.77054688 14.73638672 -47.79760742 13.82861328 C-47.80689509 10.11068926 -47.7958248 7.63180756 -45.86645508 4.40087891 C-42.26875777 2.22332527 -38.69906111 1.55911335 -34.59301758 0.81103516 C-29.90714908 -0.08318475 -25.43900026 -0.99897555 -20.98754883 -2.74755859 C-13.5731116 -5.55280655 -7.12236252 -2.4934012 0 0 Z " fill="#22303F" transform="translate(270.343017578125,81.12646484375)"/>
<path d="M0 0 C44.22 0 88.44 0 134 0 C133 5 133 5 131.45776367 6.43920898 C130.80525635 6.80860596 130.15274902 7.17800293 129.48046875 7.55859375 C128.39451416 8.17710205 128.39451416 8.17710205 127.28662109 8.80810547 C123.67932138 10.68839985 120.0399515 12.43333649 116.3125 14.0625 C115.13675415 14.57901123 115.13675415 14.57901123 113.93725586 15.10595703 C98.43919813 21.78891074 83.69078814 24.4219854 66.875 24.375 C66.1432254 24.37445618 65.41145081 24.37391235 64.65750122 24.37335205 C53.59757327 24.33553826 43.53033089 23.64991017 33 20 C32.34370605 19.78569336 31.68741211 19.57138672 31.01123047 19.35058594 C23.23195798 16.80018737 15.87390398 13.61480158 8.625 9.8125 C7.98804199 9.47959961 7.35108398 9.14669922 6.69482422 8.80371094 C3.57744616 7.10270125 2.00896509 6.01344764 0 3 C0 2.01 0 1.02 0 0 Z " fill="#87C6FC" transform="translate(189,161)"/>
<path d="M0 0 C1.57739258 1.36694336 1.57739258 1.36694336 2.89453125 3.08984375 C3.61479492 4.01893555 3.61479492 4.01893555 4.34960938 4.96679688 C4.83236328 5.61712891 5.31511719 6.26746094 5.8125 6.9375 C6.31458984 7.58396484 6.81667969 8.23042969 7.33398438 8.89648438 C11 13.69971301 11 13.69971301 11 16 C-22.67008561 32.4780238 -22.67008561 32.4780238 -37.9375 39.5625 C-38.91138672 40.02052002 -39.88527344 40.47854004 -40.88867188 40.95043945 C-41.78005859 41.3599585 -42.67144531 41.76947754 -43.58984375 42.19140625 C-44.35159912 42.54404541 -45.11335449 42.89668457 -45.89819336 43.26000977 C-48 44 -48 44 -52 44 C-53.6315918 42.3034668 -53.6315918 42.3034668 -55.19921875 39.94921875 C-55.76833984 39.10552734 -56.33746094 38.26183594 -56.92382812 37.39257812 C-57.7968457 36.05356445 -57.7968457 36.05356445 -58.6875 34.6875 C-59.57791992 33.36588867 -59.57791992 33.36588867 -60.48632812 32.01757812 C-64.83363412 25.49909764 -64.83363412 25.49909764 -66 22 C-54.79458721 17.73828589 -54.79458721 17.73828589 -49.61132812 15.78027344 C-48.2616951 15.27024487 -46.9120862 14.76015245 -45.5625 14.25 C-44.87176392 13.98890442 -44.18102783 13.72780884 -43.46936035 13.45880127 C-39.08586795 11.79875297 -34.71104358 10.11767841 -30.34143066 8.42144775 C-27.43583594 7.29542378 -24.52645677 6.17939738 -21.61645508 5.06481934 C-20.20959848 4.52319009 -18.80446297 3.97706826 -17.40112305 3.4263916 C-15.42794446 2.65278255 -13.44929705 1.89513126 -11.46875 1.140625 C-10.33888672 0.70266602 -9.20902344 0.26470703 -8.04492188 -0.18652344 C-4.79287131 -1.05533618 -3.14536661 -1.14245112 0 0 Z " fill="#FBBC31" transform="translate(184,257)"/>
<path d="M0 0 C4.27712523 0.59885335 8.05722883 1.61591211 12.09716797 3.13305664 C13.27793915 3.57343765 14.45871033 4.01381866 15.67526245 4.46754456 C16.94761506 4.94829801 18.21992237 5.42917135 19.4921875 5.91015625 C20.80622865 6.40244785 22.12045071 6.89425682 23.43484497 7.38560486 C26.87909745 8.67460666 30.32086588 9.97011616 33.762146 11.26702881 C37.28004874 12.59148865 40.80027804 13.9097342 44.3203125 15.22851562 C51.21582449 17.8129582 58.10872228 20.40428507 65 23 C63.70380813 26.3531981 62.41065175 29.06461984 60.21484375 31.91796875 C59.68439453 32.61470703 59.15394531 33.31144531 58.60742188 34.02929688 C57.78081055 35.09760742 57.78081055 35.09760742 56.9375 36.1875 C55.84113597 37.61748467 54.74602235 39.04842917 53.65234375 40.48046875 C53.16757568 41.10848389 52.68280762 41.73649902 52.18334961 42.38354492 C50.92917771 44.00207569 50.92917771 44.00207569 50 46 C45.06739861 44.49713942 40.59435689 42.45976231 35.98828125 40.18359375 C34.84454544 39.62423378 34.84454544 39.62423378 33.67770386 39.05357361 C32.0558609 38.25996388 30.43482629 37.46470035 28.81454468 36.66790771 C24.64290616 34.61645905 20.46560812 32.57659057 16.2890625 30.53515625 C15.07046791 29.93888428 15.07046791 29.93888428 13.82725525 29.33056641 C5.25615542 25.1396606 -3.35826269 21.04305631 -12 17 C-10.25477062 12.94785821 -7.5771843 9.69396039 -4.875 6.25 C-4.40707031 5.64800781 -3.93914062 5.04601562 -3.45703125 4.42578125 C-2.30774993 2.94813384 -1.15428765 1.47373995 0 0 Z " fill="#FCBD31" transform="translate(329,256)"/>
<path d="M0 0 C19.14 0 38.28 0 58 0 C58 6.93 58 13.86 58 21 C38.86 21 19.72 21 0 21 C0 14.07 0 7.14 0 0 Z " fill="#FABC31" transform="translate(326,350)"/>
<path d="M0 0 C3.64154662 1.30758238 7.1224882 2.39749794 10.9375 3.0625 C11.5192669 13.22726056 10.34451096 21.03471138 5.3125 29.9375 C0.71148854 34.05419446 -4.40457104 36.922609 -10.625 37.25 C-16.58895824 35.18972352 -22.15447714 32.15509936 -25.5 26.625 C-29.02989629 18.57683646 -29.29778819 11.75509144 -29.0625 3.0625 C-28.33804688 2.86914062 -27.61359375 2.67578125 -26.8671875 2.4765625 C-20.7582441 0.83991909 -20.7582441 0.83991909 -14.75 -1.125 C-9.41340206 -2.73839007 -5.14999439 -1.86728829 0 0 Z " fill="#FBBC31" transform="translate(265.0625,92.9375)"/>
<path d="M0 0 C1.0859375 1.43359375 1.0859375 1.43359375 2.375 3.4375 C9.41675463 13.09427516 22.2134091 21.55372642 34 24 C31.98021217 28.34007922 29.15366641 31.63322503 26.0625 35.25 C25.52431641 35.8996875 24.98613281 36.549375 24.43164062 37.21875 C23.90892578 37.83234375 23.38621094 38.4459375 22.84765625 39.078125 C22.37336182 39.63918945 21.89906738 40.20025391 21.41040039 40.77832031 C20 42 20 42 17 42 C14.90625 39.8671875 14.90625 39.8671875 12.5 36.875 C12.0678418 36.34237549 11.63568359 35.80975098 11.19042969 35.26098633 C9.78157339 33.51657985 8.38865937 31.76051993 7 30 C6.52369141 29.39623535 6.04738281 28.7924707 5.55664062 28.17041016 C3.64872322 25.74689159 1.74225709 23.32251508 -0.14746094 20.88476562 C-2.57355519 17.7632494 -5.06316532 14.77951805 -7.75 11.875 C-10 9 -10 9 -9.85546875 6.9921875 C-8.81226359 4.56280562 -7.74131385 3.71764176 -5.5625 2.25 C-4.94503906 1.82203125 -4.32757813 1.3940625 -3.69140625 0.953125 C-2 0 -2 0 0 0 Z " fill="#F46C83" transform="translate(204,242)"/>
<path d="M0 0 C3.55225704 1.71435014 6.74021634 3.77742023 10 6 C8.43359988 11.25204746 5.046222 14.84674834 1.5625 18.9375 C-3.9566644 25.49711195 -3.9566644 25.49711195 -9.265625 32.2265625 C-9.7613501 32.8750415 -10.2570752 33.52352051 -10.76782227 34.19165039 C-11.69765121 35.41697785 -12.62032194 36.64777816 -13.53491211 37.88452148 C-14.62197721 39.31080659 -15.80372783 40.6639863 -17 42 C-20 42 -20 42 -22.33984375 39.76953125 C-23.19707031 38.79371094 -24.05429687 37.81789063 -24.9375 36.8125 C-25.79214844 35.84957031 -26.64679688 34.88664062 -27.52734375 33.89453125 C-34 26.31753555 -34 26.31753555 -34 24 C-33.24976563 23.70867187 -32.49953125 23.41734375 -31.7265625 23.1171875 C-18.49459863 17.81773597 -8.23937581 11.77471082 0 0 Z " fill="#F46C83" transform="translate(308,242)"/>
</svg>
